<?xml version="1.0" encoding="UTF-8"?>
<svg id="Vynil" xmlns="http://www.w3.org/2000/svg" version="1.1" viewBox="0 0 512 512">
  <!-- Generator: Adobe Illustrator 29.3.1, SVG Export Plug-In . SVG Version: 2.1.0 Build 151)  -->
  <defs>
    <style>
      .st0 {
        fill: none;
        stroke: #a7a9ac;
      }

      .st0, .st1 {
        stroke-miterlimit: 10;
      }

      .st1 {
        fill: #231f20;
        stroke: #fff;
        stroke-width: 5px;
      }
    </style>
  </defs>
  <path class="st1" d="M274.55,25.77c-127.15,0-230.23,103.08-230.23,230.23s103.08,230.23,230.23,230.23,230.23-103.08,230.23-230.23S401.7,25.77,274.55,25.77ZM273,292.77c-20.31,0-36.77-16.46-36.77-36.77s16.46-36.77,36.77-36.77,36.77,16.46,36.77,36.77-16.46,36.77-36.77,36.77Z"/>
  <path class="st0" d="M256,38.14c-120.32,0-217.86,97.54-217.86,217.86s97.54,217.86,217.86,217.86,217.86-97.54,217.86-217.86S376.32,38.14,256,38.14ZM254.53,290.79c-19.22,0-34.79-15.58-34.79-34.79s15.58-34.79,34.79-34.79,34.79,15.58,34.79,34.79-15.58,34.79-34.79,34.79Z"/>
  <path class="st0" d="M234.64,59.5c-108.52,0-196.5,87.98-196.5,196.5s87.98,196.5,196.5,196.5,196.5-87.98,196.5-196.5S343.16,59.5,234.64,59.5ZM233.31,287.38c-17.33,0-31.38-14.05-31.38-31.38s14.05-31.38,31.38-31.38,31.38,14.05,31.38,31.38-14.05,31.38-31.38,31.38Z"/>
</svg>